<svg id="Layer_1" data-name="Layer 1" xmlns="http://www.w3.org/2000/svg" viewBox="0 0 212.09 34.76"><title>about_me</title><path d="M21.94,29.4H6.21L1.76,41.14H0.47l13-33.82h1.2l13,33.82H26.37ZM6.63,28.32H21.52L14.13,8.94H14Z" transform="translate(-0.47 -6.85)"/><path d="M31.05,41.14V7.32H41.93c5.88,0,9.89,3.3,9.89,8.18,0,4.17-2.62,7.24-6.87,8.09v0.09c4.83,0.49,8.67,3.56,8.67,8.58,0,5.41-4.31,8.88-11.37,8.88H31.05Zm1.17-17.93h9.4c5.41,0,9-3,9-7.69,0-4.29-3.52-7.13-8.81-7.13H32.23V23.21Zm10,16.85c6.4,0,10.27-3.07,10.27-7.83s-4.05-7.95-10.78-7.95H32.23V40.07h10Z" transform="translate(-0.47 -6.85)"/><path d="M86.13,24.22c0,10.66-5.79,17.39-14.91,17.39S56.32,34.89,56.32,24.22,62.11,6.85,71.23,6.85,86.13,13.6,86.13,24.22Zm-28.64,0c0,10,5.37,16.29,13.73,16.29S85,34.18,85,24.22,79.57,8,71.23,8,57.49,14.26,57.49,24.22Z" transform="translate(-0.47 -6.85)"/><path d="M91.69,29.43c0,6.82,4.36,11.09,11.23,11.09s11.25-4.27,11.25-11.09V7.32h1.17V29.45c0,7.41-4.8,12.16-12.42,12.16s-12.4-4.76-12.4-12.16V7.32h1.17v22.1Z" transform="translate(-0.47 -6.85)"/><path d="M130.76,41.14V8.43H118.55V7.32h25.57v1.1H131.91V41.14h-1.15Z" transform="translate(-0.47 -6.85)"/><path d="M187.36,41.14h-1.15V10h-0.09l-13.69,31.1h-1.24L157.5,10h-0.09V41.14h-1.15V7.32h1.24l14.27,32.34h0.09l14.2-32.34h1.29V41.14Z" transform="translate(-0.47 -6.85)"/><path d="M212.55,41.14H193.2V7.32h19.36v1.1H194.37V23.24h17.34v1.08H194.37V40h18.19v1.1Z" transform="translate(-0.47 -6.85)"/></svg>