<svg id="Layer_1" data-name="Layer 1" xmlns="http://www.w3.org/2000/svg" viewBox="0 0 260.44 33.33"><title>contact_me</title><path d="M4.66,24.76c0,6.3,3,12.28,10.59,12.28,5.88,0,9.7-3.75,9.7-8.3h1.29v0.09c0,5-4.2,9.42-11,9.42-8.67,0-11.93-6.42-11.93-13.76V18.72c0-7.27,3.47-13.78,11.79-13.78,7.22,0,10.85,5.2,10.85,9.42v0.09H24.68c0-3.63-3.33-8.3-9.56-8.3-7.34,0-10.45,6-10.45,12.28v6.33Z" transform="translate(-3.33 -4.94)"/><path d="M32.51,18.6c0-8.18,4.29-13.66,12-13.66s12,5.53,12,13.71v6c0,8.18-4.29,13.66-12,13.66s-12-5.48-12-13.66v-6Zm1.31,6.19C33.82,31.94,37.73,37,44.53,37s10.71-5.11,10.71-12.26V18.41c0-7.15-4-12.26-10.71-12.26S33.82,11.26,33.82,18.41v6.38Z" transform="translate(-3.33 -4.94)"/><path d="M64.52,37.51V5.69h1.41l19,29.44H85V5.69h1.34V37.51H84.91L66,8.08H65.86V37.51H64.52Z" transform="translate(-3.33 -4.94)"/><path d="M102.94,37.51V6.93H92.37V5.69H114.8V6.93H104.27V37.51h-1.34Z" transform="translate(-3.33 -4.94)"/><path d="M114.45,37.51L125.86,5.69h1.48l11.41,31.83h-1.43l-3.89-11H119.74l-3.89,11h-1.41ZM126.54,7.3l-6.4,18H133l-6.35-18h-0.12Z" transform="translate(-3.33 -4.94)"/><path d="M144.82,24.76c0,6.3,3,12.28,10.59,12.28,5.88,0,9.7-3.75,9.7-8.3h1.29v0.09c0,5-4.2,9.42-11,9.42-8.67,0-11.93-6.42-11.93-13.76V18.72c0-7.27,3.47-13.78,11.79-13.78,7.22,0,10.85,5.2,10.85,9.42v0.09h-1.29c0-3.63-3.33-8.3-9.56-8.3-7.34,0-10.45,6-10.45,12.28v6.33Z" transform="translate(-3.33 -4.94)"/><path d="M181.08,37.51V6.93H170.51V5.69h22.43V6.93H182.41V37.51h-1.34Z" transform="translate(-3.33 -4.94)"/><path d="M208.95,37.51V5.69h1.36l12.4,27.77h0.09L235.22,5.69h1.34V37.51h-1.24V8.64h-0.09L223.41,35.05h-1.31L210.28,8.64h-0.09V37.51h-1.24Z" transform="translate(-3.33 -4.94)"/><path d="M263.77,37.51H245.84V5.69h17.93V6.93H247.17V20.57H263v1.24h-15.8V36.27h16.59v1.24Z" transform="translate(-3.33 -4.94)"/></svg>