<svg id="Layer_1" data-name="Layer 1" xmlns="http://www.w3.org/2000/svg" viewBox="0 0 226.01 34.76"><title>portfolio</title><path d="M22.92,7.34c6.63,0,10.85,3.84,10.85,9.87s-4.24,9.87-10.87,9.87h-9.3V41.16H12.42V7.34h10.5ZM13.59,26h9.23c6,0,9.77-3.35,9.77-8.77s-3.77-8.77-9.77-8.77H13.59V26Z" transform="translate(-12.42 -6.88)"/><path d="M66.28,24.24c0,10.66-5.79,17.39-14.91,17.39S36.47,34.91,36.47,24.24,42.26,6.88,51.38,6.88,66.28,13.63,66.28,24.24Zm-28.64,0c0,10,5.37,16.29,13.73,16.29S65.11,34.2,65.11,24.24,59.72,8,51.38,8,37.64,14.28,37.64,24.24Z" transform="translate(-12.42 -6.88)"/><path d="M71.84,41.16H70.67V7.34h10.5C87.92,7.34,92,11,92,16.88c0,4.92-3,8.39-8.13,9.28l8.93,15H91.5L82.69,26.35c-0.42,0-1.1,0-1.55,0h-9.3V41.16Zm0-15.84h9.3c6,0,9.7-3.21,9.7-8.44s-3.66-8.44-9.73-8.44H71.84V25.32Z" transform="translate(-12.42 -6.88)"/><path d="M106.17,41.16V8.45H94V7.34h25.57v1.1H107.32V41.16h-1.15Z" transform="translate(-12.42 -6.88)"/><path d="M122.74,41.16V7.34h19.15v1.1h-18V23.31h16.55v1.1H123.92V41.16h-1.17Z" transform="translate(-12.42 -6.88)"/><path d="M175,24.24c0,10.66-5.79,17.39-14.91,17.39s-14.91-6.73-14.91-17.39S151,6.88,160.13,6.88,175,13.63,175,24.24Zm-28.64,0c0,10,5.37,16.29,13.73,16.29s13.73-6.33,13.73-16.29S168.47,8,160.13,8,146.39,14.28,146.39,24.24Z" transform="translate(-12.42 -6.88)"/><path d="M198.75,41.16H179.42V7.34h1.17V40.06h18.16v1.1Z" transform="translate(-12.42 -6.88)"/><path d="M203.06,41.16V7.34h1.17V41.16h-1.17Z" transform="translate(-12.42 -6.88)"/><path d="M238.43,24.24c0,10.66-5.79,17.39-14.91,17.39s-14.91-6.73-14.91-17.39,5.79-17.37,14.91-17.37S238.43,13.63,238.43,24.24Zm-28.64,0c0,10,5.37,16.29,13.73,16.29s13.73-6.33,13.73-16.29S231.87,8,223.52,8,209.79,14.28,209.79,24.24Z" transform="translate(-12.42 -6.88)"/></svg>