<svg id="Layer_1" data-name="Layer 1" xmlns="http://www.w3.org/2000/svg" viewBox="0 0 185.23 31.16"><title>projects</title><path d="M12,1.32c5.94,0,9.72,3.44,9.72,8.84S17.93,19,12,19H3.65V31.62h-1V1.32H12ZM3.65,18h8.27c5.35,0,8.76-3,8.76-7.85S17.3,2.31,11.93,2.31H3.65V18Z" transform="translate(-2.6 -0.9)"/><path d="M26.48,31.62h-1V1.32h9.41c6,0,9.74,3.23,9.74,8.55,0,4.41-2.71,7.52-7.29,8.31l8,13.44h-1.2L36.2,18.35c-0.38,0-1,0-1.39,0H26.48V31.62Zm0-14.19h8.34c5.4,0,8.69-2.88,8.69-7.56s-3.28-7.56-8.71-7.56H26.48V17.43Z" transform="translate(-2.6 -0.9)"/><path d="M74.45,16.46C74.45,26,69.27,32,61.1,32S47.75,26,47.75,16.46,52.93,0.9,61.1.9,74.45,6.95,74.45,16.46Zm-25.66,0c0,8.92,4.81,14.59,12.3,14.59s12.3-5.67,12.3-14.59S68.57,1.89,61.1,1.89,48.79,7.54,48.79,16.46Z" transform="translate(-2.6 -0.9)"/><path d="M76.68,25c0.19,3.59,3,6.07,6.89,6.07,4.43,0,7.16-2.79,7.16-7.52V1.32h1v22.3c0,5.16-3.11,8.44-8.21,8.44-4.47,0-7.77-2.92-7.92-7.05h1Z" transform="translate(-2.6 -0.9)"/><path d="M114.32,31.62H97V1.32h17.34v1H98V15.58h15.54v1H98V30.63h16.29v1Z" transform="translate(-2.6 -0.9)"/><path d="M117.75,16.25C117.75,6.82,122.85.9,131,.9c6,0,11.19,4.47,11.72,10.16h-1A10.62,10.62,0,0,0,131,1.89c-7.45,0-12.16,5.52-12.16,14.36,0,9.09,4.79,14.8,12.16,14.8,5.61,0,10.18-3.48,10.69-8.67h1C142.19,28.07,137.27,32,131,32,122.91,32,117.75,25.89,117.75,16.25Z" transform="translate(-2.6 -0.9)"/><path d="M153.92,31.62V2.31H143v-1h22.91v1H155V31.62h-1Z" transform="translate(-2.6 -0.9)"/><path d="M167.72,23.6c0.23,4.37,4.3,7.47,9.85,7.47s9.22-3.15,9.22-7.37c0-3.38-2.25-5.25-7.6-6.59l-3.51-.88c-5.63-1.41-8.17-3.63-8.17-7.33,0-4.64,4.41-8,9.68-8,5.63,0,9.87,3.3,10.06,7.58h-1c-0.19-3.78-4-6.61-9-6.61-4.74,0-8.63,2.94-8.63,7,0,3.23,2.35,5.08,7.45,6.34l3.46,0.86c5.73,1.43,8.36,3.63,8.36,7.56,0,4.85-4.16,8.38-10.31,8.38s-10.62-3.53-10.85-8.44h1Z" transform="translate(-2.6 -0.9)"/></svg>